<mxfile host="app.diagrams.net" modified="2021-09-15T02:34:39.809Z" agent="5.0 (X11; Linux x86_64) AppleWebKit/537.36 (KHTML, like Gecko) Chrome/91.0.4472.77 Safari/537.36" etag="jrkDWdM_br2dkfrZL5rL" version="15.2.5" type="github">
  <diagram id="VoOtRalG9uHOGFy7urtv" name="Page-1">
    <mxGraphModel dx="1422" dy="705" grid="1" gridSize="10" guides="1" tooltips="1" connect="1" arrows="1" fold="1" page="1" pageScale="1" pageWidth="827" pageHeight="1169" math="0" shadow="0">
      <root>
        <mxCell id="0" />
        <mxCell id="1" parent="0" />
        <mxCell id="ozRxdxlk4npKhttdwKso-1" value="" style="rounded=1;whiteSpace=wrap;html=1;" vertex="1" parent="1">
          <mxGeometry x="140" y="110" width="330" height="280" as="geometry" />
        </mxCell>
        <mxCell id="ozRxdxlk4npKhttdwKso-2" value="CPU Core" style="rounded=1;whiteSpace=wrap;html=1;" vertex="1" parent="1">
          <mxGeometry x="290" y="330" width="120" height="60" as="geometry" />
        </mxCell>
        <mxCell id="ozRxdxlk4npKhttdwKso-3" value="DP" style="rounded=1;whiteSpace=wrap;html=1;" vertex="1" parent="1">
          <mxGeometry x="140" y="180" width="60" height="100" as="geometry" />
        </mxCell>
        <mxCell id="ozRxdxlk4npKhttdwKso-5" style="edgeStyle=orthogonalEdgeStyle;rounded=0;orthogonalLoop=1;jettySize=auto;html=1;exitX=0;exitY=0.5;exitDx=0;exitDy=0;" edge="1" parent="1" source="ozRxdxlk4npKhttdwKso-4" target="ozRxdxlk4npKhttdwKso-3">
          <mxGeometry relative="1" as="geometry" />
        </mxCell>
        <mxCell id="ozRxdxlk4npKhttdwKso-4" value="SCE Debug Controller" style="rounded=1;whiteSpace=wrap;html=1;" vertex="1" parent="1">
          <mxGeometry x="290" y="180" width="120" height="100" as="geometry" />
        </mxCell>
        <mxCell id="ozRxdxlk4npKhttdwKso-6" value="" style="endArrow=classic;html=1;exitX=0.5;exitY=1;exitDx=0;exitDy=0;" edge="1" parent="1" source="ozRxdxlk4npKhttdwKso-4">
          <mxGeometry width="50" height="50" relative="1" as="geometry">
            <mxPoint x="390" y="380" as="sourcePoint" />
            <mxPoint x="350" y="330" as="targetPoint" />
          </mxGeometry>
        </mxCell>
        <mxCell id="ozRxdxlk4npKhttdwKso-7" value="DBGEN" style="text;html=1;align=center;verticalAlign=middle;resizable=0;points=[];autosize=1;strokeColor=none;fillColor=none;" vertex="1" parent="1">
          <mxGeometry x="220" y="200" width="60" height="20" as="geometry" />
        </mxCell>
        <mxCell id="ozRxdxlk4npKhttdwKso-8" value="SPIDEN" style="text;html=1;align=center;verticalAlign=middle;resizable=0;points=[];autosize=1;strokeColor=none;fillColor=none;" vertex="1" parent="1">
          <mxGeometry x="220" y="240" width="60" height="20" as="geometry" />
        </mxCell>
        <mxCell id="ozRxdxlk4npKhttdwKso-9" value="DBGEN" style="text;html=1;align=center;verticalAlign=middle;resizable=0;points=[];autosize=1;strokeColor=none;fillColor=none;" vertex="1" parent="1">
          <mxGeometry x="360" y="300" width="60" height="20" as="geometry" />
        </mxCell>
        <mxCell id="ozRxdxlk4npKhttdwKso-10" value="SPIDEN" style="text;html=1;align=center;verticalAlign=middle;resizable=0;points=[];autosize=1;strokeColor=none;fillColor=none;" vertex="1" parent="1">
          <mxGeometry x="275" y="300" width="60" height="20" as="geometry" />
        </mxCell>
        <mxCell id="ozRxdxlk4npKhttdwKso-11" value="debugger" style="rounded=1;whiteSpace=wrap;html=1;" vertex="1" parent="1">
          <mxGeometry x="10" y="200" width="80" height="60" as="geometry" />
        </mxCell>
        <mxCell id="ozRxdxlk4npKhttdwKso-12" value="EN reg" style="rounded=0;whiteSpace=wrap;html=1;fillColor=#d5e8d4;strokeColor=#82b366;" vertex="1" parent="1">
          <mxGeometry x="315" y="180" width="70" height="20" as="geometry" />
        </mxCell>
        <mxCell id="ozRxdxlk4npKhttdwKso-15" value="" style="endArrow=classic;startArrow=classic;html=1;entryX=1;entryY=0.5;entryDx=0;entryDy=0;" edge="1" parent="1" source="ozRxdxlk4npKhttdwKso-3" target="ozRxdxlk4npKhttdwKso-11">
          <mxGeometry width="50" height="50" relative="1" as="geometry">
            <mxPoint x="390" y="380" as="sourcePoint" />
            <mxPoint x="440" y="330" as="targetPoint" />
          </mxGeometry>
        </mxCell>
        <mxCell id="ozRxdxlk4npKhttdwKso-16" value="LOCK reg" style="rounded=0;whiteSpace=wrap;html=1;fillColor=#d5e8d4;strokeColor=#82b366;" vertex="1" parent="1">
          <mxGeometry x="315" y="260" width="70" height="20" as="geometry" />
        </mxCell>
      </root>
    </mxGraphModel>
  </diagram>
</mxfile>
